<svg id="Layer_1" data-name="Layer 1" xmlns="http://www.w3.org/2000/svg" width="500" height="500" viewBox="0 0 500 500"><path d="M379.6,328.1c6.8-2.1,13.6-5.3,18.6-9.4a39.6,39.6,0,0,0,15.3-28.9,34.1,34.1,0,0,0-3.6-17.4c-5.6-11.6-17.6-19.1-29.8-22s-22.9-.9-29.7,2.9a23.5,23.5,0,0,0-10.5,11.3c-.9,2-1.5,4.2-.8,4.5s.8-.4,1.4-1.5c2.9-4.7,6.7-8.6,11.7-10.8s15.8-3.8,26.4-.8,20.5,9.7,25,19.6a27.2,27.2,0,0,1,2.4,13.8,32.4,32.4,0,0,1-12.8,23.1,47.5,47.5,0,0,1-16.3,7.9,70.7,70.7,0,0,1-28.2,2.3c-17.3-2-34.7-9.9-48.7-22.4-17.3-15.3-27.3-35.9-27.6-56.5a52.5,52.5,0,0,1,1-11.2c19.2-8.7,39.7-16.6,61.2-20s44.2-2.5,67.3,3.4a178.4,178.4,0,0,1,51,21.9,217.3,217.3,0,0,1,18.8,13.5c6.2,5.1,16.1,13.4,20.5,19.8.4.6,1.4.8,1.4-.3.1-3-4.5-14.1-5.9-17.1a131.8,131.8,0,0,0-15.5-25.5A152.6,152.6,0,0,0,433.5,193c-19.5-12.5-39.7-20.2-60.2-23-25.6-3.8-51,.7-71.3,12.7-11.3,6.6-20.7,15.3-27.1,25.3a65.4,65.4,0,0,0-8.4,18.9l-17.4,8.2c-20,9.7-40.7,19.8-61.4,28.8-22.8,9.9-47.5,19.7-73.2,24.6-5.7,1-11.3,1.7-16.8,2.2a138.3,138.3,0,0,1-36.9-1.4,75.5,75.5,0,0,1-20.6-6.7c-10.7-5.4-18.7-13.6-22.7-23.2a39.5,39.5,0,0,1-3.4-15.8c0-6.6,1.9-13.2,6.7-17.9a27.5,27.5,0,0,1,16.7-7.4,26.5,26.5,0,0,1,11.4,1.6,20.7,20.7,0,0,1,10.6,8.2c3.7,5.7,4.2,13,1.2,17.9s-9.6,7.2-12.1,7.7a13.7,13.7,0,0,1-11.4-2.6l-.7-.5a.3.3,0,0,0-.5.3c-.1.4.5,1.7,2.3,3.2S44,257.4,49,257s10.9-1.7,15.6-8.4,4.4-16-.1-23.5c-3-5.4-8.5-9.7-15.2-11.9a33.5,33.5,0,0,0-12.5-1.7,34.1,34.1,0,0,0-21.7,9.4c-5.5,5.6-8.2,13-8.7,20.8a47,47,0,0,0,3.8,20.8c4.5,11.2,14.2,21.2,26.4,27.3a82,82,0,0,0,22.8,7.4,146.5,146.5,0,0,0,39.1,1.6q8.4-.7,17.4-2.4c26.5-5,51.7-15,75-25.1,20.9-9.1,41.8-19.2,61.9-29l11.9-5.7a57.9,57.9,0,0,0-.4,7.2c.4,24,12.6,48.2,32.7,64.6,14.9,12.4,32.6,20.2,50.3,22.3a78.5,78.5,0,0,0,32.3-2.6Zm107.8-66.9c-.7-.8-1.5-1.6-2.2-2.5A158.7,158.7,0,0,0,456.1,233a176,176,0,0,0-52.3-24.3c-16.5-4.5-42.1-8.9-70.6-4.1-19.9,3.2-38.9,10-56.7,17.8a55.9,55.9,0,0,1,5.2-10,73.5,73.5,0,0,1,24.4-22.8c18.7-11,42.2-15.2,66.1-11.6,19.2,2.6,38.5,9.8,57.3,21.3A159.2,159.2,0,0,1,467.7,232,170.8,170.8,0,0,1,487.4,261.2Z" fill="#333" fill-rule="evenodd"/></svg>